<svg xmlns="http://www.w3.org/2000/svg" xmlns:xlink="http://www.w3.org/1999/xlink" width="500" zoomAndPan="magnify" viewBox="0 0 375 374.999991" height="500" preserveAspectRatio="xMidYMid meet" version="1.0"><path fill="#4800a8" d="M 179.875 290.324219 Z M 103.613281 333.496094 L 119.390625 279.269531 L 130.433594 264.527344 L 134.640625 266.632812 L 129.382812 284.007812 L 132.539062 285.585938 L 145.160156 271.898438 L 148.84375 274.003906 L 142.003906 292.957031 L 103.613281 332.96875 Z M 157.257812 300.855469 L 179.347656 290.324219 C 186.710938 294.535156 195.652344 297.167969 204.59375 297.167969 C 217.214844 297.167969 228.785156 292.429688 237.726562 285.058594 C 252.453125 297.695312 271.386719 305.59375 291.902344 305.59375 C 337.132812 305.59375 373.949219 268.738281 373.949219 223.460938 C 373.949219 178.710938 338.183594 142.382812 294.003906 141.332031 C 295.054688 135.539062 296.109375 129.746094 296.109375 123.957031 C 296.109375 78.679688 259.292969 41.824219 214.058594 41.824219 C 175.140625 41.824219 142.53125 68.675781 134.117188 105.003906 C 125.175781 97.105469 113.078125 91.839844 99.929688 91.839844 C 71.527344 91.839844 48.386719 115.007812 48.386719 143.4375 C 48.386719 146.070312 48.386719 148.175781 48.914062 150.808594 C 19.984375 159.230469 -1.050781 185.554688 -1.050781 217.144531 C -1.050781 255.050781 29.980469 286.113281 67.847656 286.113281 L 110.976562 286.113281 L 103.085938 333.496094 L 146.738281 296.644531 L 150.421875 286.113281 L 151.472656 286.113281 Z M 139.902344 206.613281 C 155.152344 170.8125 175.140625 139.222656 219.320312 130.273438 C 231.941406 171.339844 218.792969 206.085938 191.96875 237.675781 C 195.652344 245.046875 198.808594 252.945312 197.757812 260.316406 C 196.179688 270.320312 188.816406 275.058594 181.453125 281.375 L 174.613281 287.167969 L 157.257812 301.382812 L 157.257812 266.632812 L 148.84375 271.898438 L 133.066406 262.421875 L 133.066406 251.890625 L 102.035156 270.320312 L 107.820312 233.464844 C 109.398438 223.460938 109.921875 218.195312 119.390625 212.40625 C 126.226562 208.195312 133.589844 207.667969 140.953125 207.140625 Z M 139.902344 206.613281 " fill-opacity="1" fill-rule="evenodd"/><path fill="#5ce1e6" d="M 215.113281 139.222656 L 209.328125 148.699219 C 216.164062 171.867188 208.273438 198.71875 190.394531 228.199219 C 211.957031 201.347656 223 172.917969 214.585938 138.699219 Z M 215.113281 139.222656 " fill-opacity="1" fill-rule="evenodd"/></svg>